<?xml version="1.0" encoding="UTF-8"?>
<svg id="Layer_2" data-name="Layer 2" xmlns="http://www.w3.org/2000/svg" viewBox="0 0 436.44 64.31">
  <defs>
    <style>
      .cls-1 {
        fill: #5352a3;
        stroke-width: 0px;
      }
    </style>
  </defs>
  <g id="Layer_1-2" data-name="Layer 1">
    <g>
      <path class="cls-1" d="m6.43,29.94c-8.57,1.37-8.57-9.66,0-8.29-2.16-13.89,13.17-13.87,11,0,11.03-1.73,11.01,10.02,0,8.29v19.33c0,2.86.98,4.07,3.35,4.26,2.79.14,5,1.22,4.9,4.07-1.17,8.65-20.91,6.05-19.25-5.88,0,0,0-21.77,0-21.77Z"/>
      <path class="cls-1" d="m29.07,41.99c-1.63-28.83,43.13-28.87,41.48,0,1.77,29.03-43.25,28.99-41.48,0Zm29.88.04c.78-17.43-19.08-17.41-18.32,0-.83,17.43,19.15,17.47,18.32,0Z"/>
      <path class="cls-1" d="m76.43,58.38v-31.8c.51-9.78,12.8-6.27,10.62,2.62.84.53,21.33-12.07,24.24,0h.23c4.67-13.92,27.9-10.45,26.9,5.18v23.48c.24,7.88-11,0-11,0v-20.27c.76-11.13-15.67-10.21-15,.33,0,0,0,19.93,0,19.93,0,3.88-2.11,5.95-5.52,5.95s-5.48-2.07-5.48-5.95v-20.98c.42-10.14-14.7-8.91-14,.82,0,0,0,20.69,0,20.69.4,7.91-11.42,7.91-11,0Z"/>
      <path class="cls-1" d="m143.34,50.57c-.69-12.42,16.25-13.06,26.88-13.28,2.05-9.35-10.28-12.26-15.16-4.53-2.6,3.5-9.42,2.47-9.3-2.27,1.41-15.5,37.6-13.64,35.66,3.32,0,0,0,23.87,0,23.87-.08,8.8-12.79,6.9-11.02-1.48h-.23c-5.88,11.52-27.43,8.15-26.84-5.63Zm27.09-2.96v-3.05c-4.37.51-15.95-.59-15.51,5.74.51,8.68,16.44,5.1,15.51-2.7Z"/>
      <path class="cls-1" d="m188.32,55.51c-1.36-3.15.61-6.58,4.18-6.48,5.56.47,7.17,7.89,14.1,6.84,7.78.29,9.94-7.61,1.29-8.87-8.58-1.23-20.14-4.49-19.37-13.63-1.47-15.52,30.5-17.41,34.18-4.49,2.04,5-5.06,7.53-8.24,3.83-9.12-11.91-27.5,3.36-2.19,6.05,8.91,1.88,12.58,5.16,12.58,11.41,1.36,16.31-32.09,17.84-36.52,5.35Z"/>
      <path class="cls-1" d="m245.35,55.51c-1.36-3.15.61-6.58,4.18-6.48,5.56.47,7.17,7.89,14.1,6.84,7.78.29,9.94-7.61,1.29-8.87-8.58-1.23-20.14-4.49-19.37-13.63-1.47-15.52,30.5-17.41,34.18-4.49,2.04,5-5.06,7.53-8.24,3.83-9.12-11.91-27.5,3.36-2.19,6.05,8.91,1.88,12.58,5.16,12.58,11.41,1.36,16.31-32.09,17.84-36.52,5.35Z"/>
      <path class="cls-1" d="m286.34,50.57c-.69-12.42,16.25-13.06,26.88-13.28,2.05-9.35-10.28-12.26-15.16-4.53-2.6,3.5-9.42,2.47-9.3-2.27,1.41-15.5,37.6-13.64,35.66,3.32,0,0,0,23.87,0,23.87-.08,8.8-12.79,6.9-11.02-1.48h-.23c-5.88,11.52-27.43,8.15-26.84-5.63Zm26.09-2.96v-3.05c-4.37.51-15.95-.59-15.51,5.74.51,8.68,16.44,5.1,15.51-2.7Z"/>
      <path class="cls-1" d="m331.43,57.39V11.82c0-3.85,2.35-5.88,5.62-5.88,9.04-.73,4.65,17.18,5.62,22.27h.23c8.92-15.75,31.36-6.33,29.5,13.46,1.89,19.88-20.67,29.1-29.65,13.54h-.23c1.9,8.88-10.65,11.35-11.08,2.19Zm30.06-15.36c.79-16.52-19.19-16.34-18.55,0-.65,16.33,19.35,16.48,18.55,0Z"/>
      <path class="cls-1" d="m377.54,41.99c-1.63-28.83,43.13-28.87,41.48,0,1.77,29.03-43.25,28.99-41.48,0Zm29.88.04c.78-17.43-19.08-17.41-18.32,0-.83,17.43,19.15,17.47,18.32,0Z"/>
      <path class="cls-1" d="m425.43,57.03V12.54c-.37-7.68,11.39-7.68,11,0,0,0,0,44.49,0,44.49.4,7.63-11.37,7.64-11,0Z"/>
    </g>
    <path class="cls-1" d="m167.07,11.82c-.03-.93.07-1.86.3-2.73C168.62,3.94,173.66.2,180.24,0c4.5-.13,7.86,1.08,11.81,3.78,2.73,1.87,4.03,2.5,5.94,2.45,2.29-.07,3.15-1.18,3.97-3.96.62-1.97,11.01-1.38,11.09,1.27.02.83-.04,1.63-.23,2.41-1.08,5.28-6.02,9.2-12.78,9.4-4.33.13-7.56-1.02-12.33-4.18-2.38-1.5-3.59-2.07-5.33-2.02-2.29.07-3.54,1.22-4.18,3.8-.49,2.03-11.05,1.57-11.13-1.14Z"/>
  </g>
</svg>